HIERARCHY
ROOT Pelvis
{
	OFFSET 0.000000 0.000000 0.000000
	CHANNELS 6 Xposition Yposition Zposition Zrotation Yrotation Xrotation 
	JOINT Left_hip
	{
		OFFSET 0.070241 -0.085575 -0.010474
		CHANNELS 3 Zrotation Yrotation Xrotation
		JOINT Left_knee
		{
			OFFSET 0.032125 -0.356873 -0.000555
			CHANNELS 3 Zrotation Yrotation Xrotation
			JOINT Left_ankle
			{
				OFFSET -0.010961 -0.370212 -0.042278
				CHANNELS 3 Zrotation Yrotation Xrotation
				JOINT Left_foot
				{
					OFFSET 0.023322 -0.052281 0.110104
					CHANNELS 3 Zrotation Yrotation Xrotation
					End Site
					{
						OFFSET 0.000000 0.000000 0.000000
					}
				}
			}
		}
	}
	JOINT Right_hip
	{
		OFFSET -0.068518 -0.084320 -0.007402
		CHANNELS 3 Zrotation Yrotation Xrotation
		JOINT Right_knee
		{
			OFFSET -0.037345 -0.364815 -0.003619
			CHANNELS 3 Zrotation Yrotation Xrotation
			JOINT Right_ankle
			{
				OFFSET 0.013394 -0.370006 -0.039954
				CHANNELS 3 Zrotation Yrotation Xrotation
				JOINT Right_foot
				{
					OFFSET -0.019600 -0.045455 0.113223
					CHANNELS 3 Zrotation Yrotation Xrotation
					End Site
					{
						OFFSET 0.000000 0.000000 0.000000
					}
				}
			}
		}
	}
	JOINT Spine1
	{
		OFFSET -0.002404 0.098129 -0.018169
		CHANNELS 3 Zrotation Yrotation Xrotation
		JOINT Spine2
		{
			OFFSET 0.003989 0.127209 -0.001742
			CHANNELS 3 Zrotation Yrotation Xrotation
			JOINT Spine3
			{
				OFFSET 0.001758 0.046641 0.023475
				CHANNELS 3 Zrotation Yrotation Xrotation
				JOINT Neck
				{
					OFFSET -0.003759 0.194901 -0.039982
					CHANNELS 3 Zrotation Yrotation Xrotation
					JOINT Head
					{
						OFFSET 0.003999 0.063756 0.047665
						CHANNELS 3 Zrotation Yrotation Xrotation
						End Site
						{
							OFFSET 0.000000 0.000000 0.000000
						}
					}
				}
				JOINT Left_collar
				{
					OFFSET 0.071816 0.109048 -0.028973
					CHANNELS 3 Zrotation Yrotation Xrotation
					JOINT Left_shoulder
					{
						OFFSET 0.084027 0.032269 -0.006525
						CHANNELS 3 Zrotation Yrotation Xrotation
						JOINT Left_elbow
						{
							OFFSET 0.243854 -0.013992 -0.025905
							CHANNELS 3 Zrotation Yrotation Xrotation
							JOINT Left_wrist
							{
								OFFSET 0.232156 0.008196 -0.000339
								CHANNELS 3 Zrotation Yrotation Xrotation
								JOINT Left_palm
								{
									OFFSET 0.075377 -0.009461 -0.012494
									CHANNELS 3 Zrotation Yrotation Xrotation
									End Site
									{
										OFFSET 0.000000 0.000000 0.000000
									}
								}
							}
						}
					}
				}
				JOINT Right_collar
				{
					OFFSET -0.073768 0.107001 -0.033755
					CHANNELS 3 Zrotation Yrotation Xrotation
					JOINT Right_shoulder
					{
						OFFSET -0.086837 0.032868 -0.009431
						CHANNELS 3 Zrotation Yrotation Xrotation
						JOINT Right_elbow
						{
							OFFSET -0.236446 -0.012544 -0.018747
							CHANNELS 3 Zrotation Yrotation Xrotation
							JOINT Right_wrist
							{
								OFFSET -0.236110 0.006124 -0.004327
								CHANNELS 3 Zrotation Yrotation Xrotation
								JOINT Right_palm
								{
									OFFSET -0.074800 -0.006875 -0.009610
									CHANNELS 3 Zrotation Yrotation Xrotation
									End Site
									{
										OFFSET 0.000000 0.000000 0.000000
									}
								}
							}
						}
					}
				}
			}
		}
	}
}
MOTION
Frames: 14
Frame Time: 0.100000
-0.346115 0.098405 -0.503559 -170.306285 -28.216081 -15.281850 -5.302649 3.962545 12.597604 -1.464619 -9.292665 -6.142917 1.601057 16.547810 -8.482165 4.148054 -1.044855 -1.306729 -10.531184 -8.460969 -17.862810 2.654095 -2.701905 12.968760 11.704924 -11.814401 12.251537 -7.983743 7.420241 -6.341122 -3.525898 1.118716 -1.232805 0.103254 1.822355 2.832023 -2.463812 3.703002 -3.157384 -5.311845 1.161450 2.817760 3.518704 5.170161 1.511362 -10.002881 14.290279 -8.671584 -18.210186 -2.998080 7.718048 8.768001 -42.361129 -11.686031 -14.159618 -13.920528 -6.302201 -8.735305 -5.326158 -11.712875 12.643832 -1.242550 -2.734201 17.904433 15.175216 -0.688336 -12.950165 40.882227 -29.415655 7.635648 13.919941 -20.175285 9.637239 3.425468 -2.988742 
-0.351200 0.097668 -0.500887 -170.725017 -26.223481 -15.759065 -5.378672 4.215144 13.181518 -1.579344 -12.046269 -5.939694 0.498911 17.933398 -9.131108 5.094031 -2.647639 0.993993 -10.804807 -12.374798 -17.148476 2.863694 -7.990738 12.547226 8.883262 -15.567084 13.153118 -5.266037 7.384132 -6.034301 -4.553665 1.925416 -1.737715 0.459578 2.365633 2.642094 -2.045641 4.430841 -3.182280 -4.935673 -1.697490 4.353084 3.610915 2.489625 2.777287 -8.850435 13.378779 -7.952401 -11.972989 -5.893641 0.328548 6.175429 -18.956686 -17.636755 -13.937019 -9.897483 0.914592 -5.116780 -4.384471 -9.959818 13.541630 2.281615 -3.145863 8.771756 20.465489 -11.492228 -12.778018 18.095838 -33.842906 5.428869 9.459878 -7.188899 6.996163 2.923091 -2.611727 
-0.356973 0.097595 -0.497100 -170.750176 -24.314367 -15.966395 -5.920651 4.233865 13.794979 -1.604334 -14.046735 -6.574676 0.004330 18.489918 -9.449796 5.208265 -3.331915 2.691922 -11.411724 -14.823777 -16.986845 2.514818 -11.241883 12.513982 6.530667 -18.127726 12.947188 -2.801413 7.496688 -5.526208 -5.124242 2.545592 -2.253766 -0.016778 3.223014 1.619645 -2.086739 5.120074 -3.136689 -4.008982 -2.958488 5.822757 3.417831 0.682226 4.030173 -8.342404 13.834661 -9.509685 -8.160544 -9.053753 -6.206653 7.052554 -3.582349 -28.884156 -9.225240 -7.046687 3.963613 -3.000281 -3.847319 -7.793561 13.466682 3.381309 -3.747841 4.220756 22.911729 -17.380762 -12.516645 2.300878 -37.287427 1.667300 6.040052 -0.311553 4.945322 3.351898 -1.973560 
-0.361977 0.097305 -0.492093 -171.121613 -22.098590 -16.182471 -6.071456 4.042042 14.419939 -1.778970 -15.649082 -6.691638 0.061190 18.255662 -9.765802 4.758690 -3.380899 3.809777 -12.645974 -15.894026 -15.852939 2.501786 -11.949848 12.558852 5.625555 -18.142775 13.336679 -1.125697 6.957586 -5.682899 -5.428812 2.984939 -2.842347 -0.112396 3.596789 1.487706 -2.041339 5.210921 -2.969570 -3.545354 -2.473535 7.049296 3.070151 0.645854 4.097363 -8.655876 13.967974 -10.420336 -6.028839 -9.825128 -9.784836 6.999501 5.177995 -37.083012 -3.175187 -7.024075 2.722138 -1.573742 -2.917211 -5.276024 13.726542 2.933770 -4.341257 3.226602 22.378244 -19.428500 -12.685552 -3.487953 -40.270991 -2.792721 5.695435 0.700611 3.955578 3.043942 -0.740538 
-0.366417 0.097690 -0.489965 -171.471863 -20.248310 -16.600125 -6.188837 3.821036 14.597233 -2.128721 -16.624686 -5.738989 0.323174 17.852646 -10.220546 4.251043 -3.350123 3.865090 -13.628749 -16.322125 -14.814953 2.220686 -12.152391 13.263234 5.455670 -18.176884 12.897034 -0.410804 6.837050 -5.507943 -5.535726 3.068420 -3.067725 0.043845 3.562976 2.037162 -2.065670 5.193995 -2.819347 -3.560681 -1.420259 7.706188 2.775905 1.764748 4.489726 -9.147233 14.523240 -9.783227 -6.327023 -8.507780 -8.654520 5.727500 5.000394 -35.150366 -2.254146 -7.798561 2.209197 -1.735397 -2.801317 -5.154675 14.342318 1.962991 -3.796502 4.001833 20.568844 -18.490002 -12.131184 -2.326943 -40.011589 -3.226137 6.547431 -0.336007 4.382528 2.896115 -0.599811 
-0.368785 0.097587 -0.487206 -171.767173 -18.967394 -17.360351 -6.150154 3.865850 15.159206 -2.427362 -17.246479 -4.702384 0.238568 17.482895 -10.573326 4.361679 -3.272188 3.496149 -14.365810 -16.473281 -13.648707 1.953969 -12.323585 13.916545 5.136661 -18.240551 12.741078 0.084418 6.730644 -5.439299 -5.515289 3.160613 -3.356870 0.185843 3.525785 2.877617 -2.159184 5.175003 -2.789880 -3.194200 -0.631544 8.831774 2.618523 2.524184 5.031967 -9.717485 14.718040 -9.629543 -6.684410 -9.008327 -8.447903 5.875943 3.905978 -35.367127 -1.611214 -8.341346 1.213414 -2.502468 -2.894445 -5.142115 14.757974 1.376240 -3.607443 4.815999 20.069255 -17.949981 -12.165145 -2.495079 -40.236872 -3.628820 6.609493 -0.802546 4.923174 3.152990 -0.511780 
-0.367750 0.096795 -0.485256 -172.104695 -17.861370 -17.500314 -5.853512 3.823660 15.365395 -2.536538 -17.705562 -4.324435 0.067826 17.027907 -10.571504 4.363753 -3.062424 3.329984 -14.451247 -16.410460 -12.803692 1.699254 -12.482133 13.705898 4.527602 -18.578977 12.477427 0.692839 6.594331 -4.985748 -5.630297 3.064087 -3.830711 0.244795 3.240757 3.026970 -2.180342 4.947902 -2.758464 -3.063033 -0.448656 9.792959 2.579921 2.659747 5.693904 -9.802586 14.358445 -9.627625 -6.442728 -9.889030 -8.673854 6.135486 3.185101 -36.185657 -1.074021 -8.432137 0.152299 -3.101156 -2.948602 -4.908724 14.738819 1.202880 -3.776607 5.556850 19.896309 -17.279902 -12.133021 -2.367154 -40.157693 -3.821860 6.392881 -1.698999 5.367738 3.393681 -0.266540 
-0.365836 0.096775 -0.484297 -172.028904 -17.973097 -17.578508 -5.803516 3.869338 15.637992 -2.406903 -17.844805 -4.558587 -0.111854 17.158066 -10.557789 4.663567 -3.181165 3.311966 -14.285364 -16.269799 -12.721541 1.579761 -12.533384 13.675887 4.265706 -18.822249 12.159342 0.891949 6.565496 -4.846001 -5.600324 2.946788 -3.975487 0.222974 3.161678 3.396929 -2.260282 4.889129 -2.925227 -3.109487 -0.428734 9.635496 2.556066 2.797006 5.596187 -9.994646 14.177466 -9.381628 -6.154868 -9.836366 -8.078894 6.097207 1.878866 -33.918824 -1.404911 -8.461506 1.586676 -3.212637 -3.120970 -5.282198 14.854183 1.252943 -3.623436 5.380567 19.765616 -17.014555 -11.915172 -1.426085 -39.311904 -3.482454 6.571934 -1.455904 5.528671 3.502844 -0.317160 
-0.362574 0.097161 -0.484634 -171.788591 -18.610544 -17.591557 -5.676395 3.984656 15.855407 -2.325927 -17.831877 -4.963292 -0.126250 17.352728 -10.575872 4.714775 -3.200468 3.401169 -14.059318 -16.127012 -13.213398 1.663828 -12.337611 14.221865 4.240879 -18.652760 11.743883 1.021059 6.460029 -4.862538 -5.602719 2.778696 -3.771173 0.224865 3.165121 3.509076 -2.273967 4.857703 -2.962749 -3.266388 -0.232979 9.370015 2.499059 2.860902 4.855057 -9.747451 14.115161 -9.196179 -5.928518 -9.481808 -7.569321 5.646708 1.595444 -32.033932 -1.547497 -8.462829 2.327731 -2.932429 -3.038082 -5.486630 14.765977 1.328277 -3.567308 5.197065 19.796035 -16.878642 -11.631228 -0.985424 -38.493971 -3.571145 6.699773 -1.332000 5.446504 3.302748 -0.297340 
-0.357470 0.097596 -0.484607 -171.578467 -19.333543 -17.598539 -5.331043 4.231135 16.336743 -2.138477 -18.015811 -5.704884 -0.385621 17.622388 -10.542319 5.131415 -3.339233 3.239318 -13.713265 -15.835232 -13.834872 1.815676 -11.982693 15.132162 4.185583 -18.589719 10.918678 0.968600 6.510148 -4.785726 -5.508599 2.655544 -3.423320 0.178568 3.296178 3.648540 -2.276281 4.879009 -2.946739 -3.233353 0.262497 9.106499 2.513808 3.062148 4.215230 -9.712626 14.208057 -9.299213 -5.565494 -9.583956 -7.669225 5.774145 1.124660 -31.607153 -1.278759 -8.473516 2.664485 -2.997672 -3.082333 -5.663118 14.776151 1.230944 -3.539129 5.089799 19.716836 -16.925506 -11.606586 -0.967162 -38.269811 -3.746753 6.719321 -1.484672 5.447232 3.278120 -0.134099 
-0.349611 0.098390 -0.484206 -171.385062 -19.443283 -17.493502 -4.932272 4.258903 16.612250 -2.057756 -18.423991 -6.054264 -0.562542 17.779530 -10.670904 5.412665 -3.352674 3.062055 -13.417046 -15.528300 -14.483747 1.809287 -11.689163 16.414883 3.987701 -18.654422 9.765976 0.923651 6.542275 -4.602107 -5.565035 2.473139 -2.891692 0.096922 3.293083 3.824896 -2.259996 4.781404 -2.929852 -3.258756 0.668496 8.761670 2.541089 3.254527 3.747303 -9.772178 14.071712 -9.328816 -5.496743 -9.804719 -7.670543 5.939579 0.435805 -31.162796 -1.304195 -8.516330 3.030473 -3.191420 -3.153473 -5.833925 14.821636 1.141915 -3.504804 5.344822 19.505311 -16.713420 -11.632531 -1.028680 -37.968936 -3.693541 6.697819 -1.795267 5.559709 3.325435 0.091131 
-0.338727 0.098861 -0.483742 -171.279981 -19.058801 -17.419747 -4.269838 4.090254 16.695521 -2.126496 -19.445507 -5.677083 -0.921544 17.841903 -10.806012 5.985261 -3.447488 2.409442 -12.998210 -14.767960 -15.092360 1.481518 -10.690685 18.200084 3.917553 -19.105986 8.394314 0.225303 6.763749 -4.580108 -5.542877 2.228101 -1.887609 -0.056077 3.124175 3.750385 -2.195486 4.638340 -2.658505 -3.405426 0.937316 8.090086 2.918091 3.749067 3.550616 -10.059977 13.502263 -9.290985 -5.656243 -10.030253 -7.775466 6.005470 -0.312581 -31.041199 -0.910189 -8.408902 2.660077 -3.710475 -3.320471 -5.486796 14.887777 1.253796 -3.474707 5.888664 19.146987 -16.361300 -11.519489 -0.276440 -37.503790 -3.742128 6.663652 -2.667234 5.866070 3.419004 0.693061 
-0.322677 0.098808 -0.485278 -171.842882 -17.195816 -17.329276 -3.021963 3.292911 15.680719 -2.583288 -21.128915 -2.798513 -1.160436 17.517387 -11.101579 6.498871 -3.385259 0.490565 -12.342422 -11.893118 -14.692206 1.080821 -5.161238 19.978299 5.241335 -18.270081 6.681230 -2.544775 7.351498 -5.367863 -5.276823 2.101174 0.031067 -0.317883 2.418870 3.603844 -2.035165 4.464695 -2.229674 -4.178349 1.077083 6.623431 4.240624 4.635703 3.358386 -10.635187 11.193256 -9.127449 -5.735263 -10.241595 -7.932148 6.131336 -2.039121 -30.627550 0.123292 -8.730448 0.727105 -4.714765 -3.665701 -4.205938 14.738154 1.992483 -3.223636 6.936882 18.033002 -15.830269 -11.637907 2.567894 -36.951298 -3.951526 7.073381 -4.932894 6.654350 3.404281 1.772401 
-0.299810 0.097402 -0.485207 -173.562166 -13.804263 -16.699910 -0.540947 2.329143 13.788453 -3.034065 -22.590515 1.066360 -1.467923 16.149947 -10.942253 6.586756 -3.108919 -3.149559 -11.969572 -6.009754 -11.142622 1.039096 7.703745 17.670771 9.510552 -13.842723 4.198381 -8.042183 8.399540 -6.796147 -4.094478 2.348748 1.667411 -0.407679 1.144775 3.515758 -1.791649 4.452934 -1.813922 -5.657222 0.432785 5.079369 6.211704 5.175556 3.258247 -10.772578 7.732213 -8.978502 -6.323460 -11.028014 -7.184433 6.851324 -8.337610 -27.480730 0.830802 -10.425039 -2.723265 -6.287099 -4.297561 -2.592895 13.658449 3.188844 -2.879398 7.743707 17.367086 -15.196226 -11.542603 6.728622 -35.834464 -3.245404 8.200309 -7.980491 7.523761 3.356623 2.470734 
